<svg xmlns="http://www.w3.org/2000/svg" version="1.1" xmlns:xlink="http://www.w3.org/1999/xlink" xmlns:svgjs="http://svgjs.com/svgjs" width="1440" height="560" preserveAspectRatio="none" viewBox="0 0 1440 560"><g mask="url(&quot;#SvgjsMask1106&quot;)" fill="none"><rect width="1440" height="560" x="0" y="0" fill="url(#SvgjsLinearGradient1107)"></rect><path d="M1157.847546169856 276.244488152549L1129.172973514283 222.31546047671674 1062.616718328321 292.29183329799235z" fill="rgba(28, 83, 142, 0.4)" class="triangle-float1"></path><path d="M864.8322129636016 320.8900583763034L939.4132156483167 435.97469822058224 995.693505332981 330.1268679332759z" fill="rgba(28, 83, 142, 0.4)" class="triangle-float1"></path><path d="M571.5932439735548-25.543235450800942L431.4268764788368-79.34806285358033 377.62204907605746 60.81830464113762 517.7884165707753 114.623132043917z" fill="rgba(28, 83, 142, 0.4)" class="triangle-float3"></path><path d="M148.84811728455168 354.610719372448L37.02484886583423 338.89498388973186 21.309113383118117 450.71825230844934 133.13238180183558 466.43398779116546z" fill="rgba(28, 83, 142, 0.4)" class="triangle-float1"></path><path d="M209.39 197.74 a124.24 124.24 0 1 0 248.48 0 a124.24 124.24 0 1 0 -248.48 0z" fill="rgba(28, 83, 142, 0.4)" class="triangle-float2"></path><path d="M-32.282741268910485 41.09893929414406L16.87558149582484 74.25664667264692 42.032981181211476-16.059691163707498z" fill="rgba(28, 83, 142, 0.4)" class="triangle-float3"></path><path d="M185.85 473.27 a173.75 173.75 0 1 0 347.5 0 a173.75 173.75 0 1 0 -347.5 0z" fill="rgba(28, 83, 142, 0.4)" class="triangle-float3"></path><path d="M1224.5349392456264 332.22210271077677L1311.0343586618624 392.91258359351315 1320.689595244608 301.0491438535296z" fill="rgba(28, 83, 142, 0.4)" class="triangle-float3"></path><path d="M195.55571450511863 181.30105383438928L220.4382329449458 53.29159366732097 92.4287727778775 28.409075227493787 67.54625433805032 156.4185353945621z" fill="rgba(28, 83, 142, 0.4)" class="triangle-float2"></path><path d="M1140.69 397.11 a144.77 144.77 0 1 0 289.54 0 a144.77 144.77 0 1 0 -289.54 0z" fill="rgba(28, 83, 142, 0.4)" class="triangle-float1"></path><path d="M321.1661192871369 292.61946805174847L347.65245159815015 105.45385207185285 193.38547189657336 164.6713973728267z" fill="rgba(28, 83, 142, 0.4)" class="triangle-float1"></path><path d="M150.361,174.912C190.742,175.47,235.38,167.179,254.857,131.801C273.905,97.204,253.755,57.379,233.849,23.269C214.169,-10.454,189.321,-44.675,150.361,-47.256C107.553,-50.092,66.34,-26.577,45.23,10.772C24.427,47.578,27.947,93.38,50.75,128.981C71.887,161.981,111.176,174.371,150.361,174.912" fill="rgba(28, 83, 142, 0.4)" class="triangle-float1"></path><path d="M1339.9841243178103 299.051418082571L1307.4590375687362 429.50241587735616 1470.4351221125953 331.5765048316449z" fill="rgba(28, 83, 142, 0.4)" class="triangle-float1"></path><path d="M828.576,246.281C869.452,247.638,911.429,233.276,932.468,198.203C954.031,162.257,950.141,116.399,927.742,80.967C906.783,47.813,867.775,35.24,828.576,33.858C786.131,32.361,738,36.886,716.508,73.518C694.857,110.421,712.696,155.787,735.98,191.681C756.88,223.9,790.193,245.007,828.576,246.281" fill="rgba(28, 83, 142, 0.4)" class="triangle-float3"></path><path d="M1371.945,360.257C1386.549,361.253,1401.819,356.806,1409.775,344.519C1418.374,331.238,1419.712,313.318,1410.801,300.244C1402.663,288.304,1386.38,288.358,1371.945,289.018C1359.029,289.609,1345.334,292.384,1338.794,303.538C1332.196,314.792,1335.529,328.64,1342.112,339.903C1348.623,351.043,1359.072,359.379,1371.945,360.257" fill="rgba(28, 83, 142, 0.4)" class="triangle-float2"></path><path d="M742.4554820087462 375.8555741217811L609.2686217492742 401.7444771920994 635.1575248195925 534.9313374515714 768.3443850790645 509.0424343812531z" fill="rgba(28, 83, 142, 0.4)" class="triangle-float1"></path><path d="M544.1050956049021 513.771672286612L611.0165636352658 629.9212285615433 671.366544738125 529.4819932518134z" fill="rgba(28, 83, 142, 0.4)" class="triangle-float2"></path><path d="M656.989,157.829C689.012,156.299,714.588,133.559,729.757,105.315C744.041,78.719,744.115,47.801,730.571,20.82C715.306,-9.59,691.003,-38.727,656.989,-39.648C621.814,-40.601,593.427,-14.024,576.162,16.637C559.265,46.645,553.981,83.009,571.09,112.896C588.297,142.953,622.394,159.482,656.989,157.829" fill="rgba(28, 83, 142, 0.4)" class="triangle-float3"></path><path d="M986.099,347.004C1011.316,345.917,1034.688,334.222,1047.85,312.686C1061.624,290.149,1065.688,261.579,1052.181,238.881C1038.924,216.603,1012.016,208.295,986.099,208.91C961.373,209.497,938.781,221.201,925.233,241.893C910.102,265.001,900.541,294.536,914.382,318.439C928.202,342.305,958.546,348.192,986.099,347.004" fill="rgba(28, 83, 142, 0.4)" class="triangle-float2"></path><path d="M1358.191,554.762C1378.725,554.081,1391.61,534.74,1401.169,516.554C1409.891,499.961,1414.95,480.615,1405.748,464.283C1396.405,447.7,1377.214,440.912,1358.191,440.271C1337.736,439.582,1315.37,443.39,1304.737,460.878C1293.799,478.869,1299.553,501.283,1309.971,519.58C1320.522,538.112,1336.878,555.469,1358.191,554.762" fill="rgba(28, 83, 142, 0.4)" class="triangle-float3"></path></g><defs><mask id="SvgjsMask1106"><rect width="1440" height="560" fill="#ffffff"></rect></mask><linearGradient x1="50%" y1="100%" x2="50%" y2="0%" gradientUnits="userSpaceOnUse" id="SvgjsLinearGradient1107"><stop stop-color="#0e2a47" offset="0"></stop><stop stop-color="rgba(42, 18, 61, 1)" offset="1"></stop></linearGradient><style>
            @keyframes float1 {
                0%{transform: translate(0, 0)}
                50%{transform: translate(-10px, 0)}
                100%{transform: translate(0, 0)}
            }

            .triangle-float1 {
                animation: float1 5s infinite;
            }

            @keyframes float2 {
                0%{transform: translate(0, 0)}
                50%{transform: translate(-5px, -5px)}
                100%{transform: translate(0, 0)}
            }

            .triangle-float2 {
                animation: float2 4s infinite;
            }

            @keyframes float3 {
                0%{transform: translate(0, 0)}
                50%{transform: translate(0, -10px)}
                100%{transform: translate(0, 0)}
            }

            .triangle-float3 {
                animation: float3 6s infinite;
            }
        </style></defs></svg>