<svg xmlns="http://www.w3.org/2000/svg" version="1.1" xmlns:xlink="http://www.w3.org/1999/xlink" xmlns:svgjs="http://svgjs.com/svgjs" width="1440" height="560" preserveAspectRatio="none" viewBox="0 0 1440 560"><g mask="url(&quot;#SvgjsMask1070&quot;)" fill="none"><rect width="1440" height="560" x="0" y="0" fill="url(#SvgjsLinearGradient1071)"></rect><path d="M74.97,178.76C109.17,177.772,131.682,147.218,148.527,117.438C165.025,88.271,177.832,54.251,162.148,24.638C145.659,-6.495,110.173,-22.822,74.97,-21.451C41.958,-20.165,15.111,2.264,-1.187,31.001C-17.236,59.299,-21.241,92.996,-6.337,121.913C9.901,153.418,39.541,179.784,74.97,178.76" fill="rgba(28, 83, 142, 0.4)" class="triangle-float2"></path><path d="M119.65318027249984-12.259678817789265L-63.18222303578914 46.95456278173154 59.685198836231514 161.53028727223128z" fill="rgba(28, 83, 142, 0.4)" class="triangle-float1"></path><path d="M-68.63 -6.03 a62.6 62.6 0 1 0 125.2 0 a62.6 62.6 0 1 0 -125.2 0z" fill="rgba(28, 83, 142, 0.4)" class="triangle-float3"></path><path d="M1423.346,218.111C1466.093,216.668,1505.21,191.896,1524.169,153.556C1541.34,118.832,1529.176,78.93,1508.311,46.291C1489.296,16.547,1458.587,-2.073,1423.346,-4.158C1383.58,-6.511,1341.539,2.257,1318.978,35.089C1293.481,72.194,1287.703,121.674,1310.005,160.783C1332.484,200.202,1377.994,219.642,1423.346,218.111" fill="rgba(28, 83, 142, 0.4)" class="triangle-float1"></path><path d="M1295.679266005581 154.09011249310166L1463.4490278443493 145.297671844287 1286.8868253567664-13.679649345666746z" fill="rgba(28, 83, 142, 0.4)" class="triangle-float1"></path><path d="M1388.6064985452892-75.91285909028909L1265.7390766732685 38.66286540021065 1503.1822230357889 46.95456278173154z" fill="rgba(28, 83, 142, 0.4)" class="triangle-float3"></path><path d="M-65.50044181171862 555.573877707415L90.26644575550165 618.5077854012882 153.20035344937486 462.74089783406794-2.566534117845407 399.8069901401948z" fill="rgba(28, 83, 142, 0.4)" class="triangle-float1"></path><path d="M54.145,582.03C81.416,581.549,102.892,561.783,116.691,538.256C130.69,514.386,138.126,485.597,124.984,461.245C111.273,435.838,82.977,420.848,54.145,422.356C27.503,423.75,8.158,444.791,-4.923,468.042C-17.688,490.731,-24.318,517.416,-12.34,540.53C0.543,565.39,26.149,582.523,54.145,582.03" fill="rgba(28, 83, 142, 0.4)" class="triangle-float3"></path><path d="M79.98051847674583 406.379184481611L-30.92950522231004 421.96657178913836 47.90658758850893 580.5379136839584z" fill="rgba(28, 83, 142, 0.4)" class="triangle-float2"></path><path d="M1514.7087164319382 522.3699121102229L1413.603792542394 388.1991464222777 1380.537950743993 623.474835999767z" fill="rgba(28, 83, 142, 0.4)" class="triangle-float2"></path><path d="M1332.4261222925848 625.5004418117186L1488.193009859805 562.5665341178453 1425.2591021659318 406.7996465506251 1269.4922145987116 469.73355424449835z" fill="rgba(28, 83, 142, 0.4)" class="triangle-float1"></path><path d="M1211.98 489.36 a157.38 157.38 0 1 0 314.76 0 a157.38 157.38 0 1 0 -314.76 0z" fill="rgba(28, 83, 142, 0.4)" class="triangle-float1"></path></g><defs><mask id="SvgjsMask1070"><rect width="1440" height="560" fill="#ffffff"></rect></mask><linearGradient x1="50%" y1="0%" x2="50%" y2="100%" gradientUnits="userSpaceOnUse" id="SvgjsLinearGradient1071"><stop stop-color="#0e2a47" offset="0"></stop><stop stop-color="rgba(18, 37, 61, 1)" offset="1"></stop></linearGradient><style>
            @keyframes float1 {
                0%{transform: translate(0, 0)}
                50%{transform: translate(-10px, 0)}
                100%{transform: translate(0, 0)}
            }

            .triangle-float1 {
                animation: float1 5s infinite;
            }

            @keyframes float2 {
                0%{transform: translate(0, 0)}
                50%{transform: translate(-5px, -5px)}
                100%{transform: translate(0, 0)}
            }

            .triangle-float2 {
                animation: float2 4s infinite;
            }

            @keyframes float3 {
                0%{transform: translate(0, 0)}
                50%{transform: translate(0, -10px)}
                100%{transform: translate(0, 0)}
            }

            .triangle-float3 {
                animation: float3 6s infinite;
            }
        </style></defs></svg>